<svg width="108" height="108" viewBox="0 0 108 108" fill="none" xmlns="http://www.w3.org/2000/svg">
<path d="M71.6019 36.9618L22.726 50.058L34.1555 92.7133L83.0313 79.6171L71.6019 36.9618Z" fill="#002E5D"/>
<path d="M71.6019 36.9618L22.726 50.058L33.203 89.1587L82.0789 76.0625L71.6019 36.9618Z" fill="#37668B"/>
<path d="M73.1994 27.9015L24.3236 40.9978L35.753 83.6531L84.6289 70.5568L73.1994 27.9015Z" fill="#1E4B72"/>
<path d="M73.1994 27.9015L24.3236 40.9978L34.8006 80.0985L83.6764 67.0022L73.1994 27.9015Z" fill="#5080A4"/>
<path d="M74.797 18.8413L25.9211 31.9376L37.3506 74.5928L86.2264 61.4966L74.797 18.8413Z" fill="#37668B"/>
<path d="M74.797 18.8413L25.9211 31.9376L36.3981 71.0382L85.274 57.942L74.797 18.8413Z" fill="#BCE1FF"/>
<path d="M62.3212 41.9367C63.3788 42.2719 64.3279 42.7538 65.1686 43.3823C66.0314 43.9714 66.8074 44.7843 67.4965 45.8208C68.251 46.972 68.8094 48.1947 69.1719 49.4889C69.5566 50.7436 69.6578 51.9947 69.4754 53.2421C69.3153 54.4501 68.8279 55.6168 68.0132 56.7422C67.2208 57.8282 66.04 58.7737 64.471 59.5787C63.6378 60.0447 62.6376 60.5076 61.4704 60.9674C60.3031 61.4273 59.2419 61.791 58.2867 62.0585C57.0935 62.4259 55.8456 62.7755 54.5427 63.1072C53.2794 63.461 52.0123 63.683 50.7415 63.7731C50.1745 63.7657 49.7159 63.6117 49.3659 63.3109C49.038 62.9708 48.7587 62.5671 48.5282 62.1C48.3273 61.8572 48.188 61.5971 48.1103 61.3198L40.757 35.0661C40.5153 34.2033 40.4993 33.4934 40.7088 32.9362C40.9404 32.3396 41.3188 31.8515 41.8439 31.4718C42.3603 31.0613 42.9839 30.7371 43.7149 30.4991C44.4371 30.2304 45.1989 29.9838 46 29.7594C46.6163 29.5868 47.2326 29.4142 47.8489 29.2416C48.4873 29.0295 49.1344 28.8483 49.7902 28.6978C50.8157 28.4438 51.8892 28.2428 53.0109 28.0948C54.1547 27.9074 55.2714 27.8605 56.3611 27.954C56.8664 27.9787 57.4199 28.0563 58.0214 28.1869C58.6143 28.2867 59.1166 28.4783 59.5283 28.7618C60.7646 29.3792 61.7822 30.224 62.581 31.2963C63.402 32.3292 63.9543 33.4705 64.2379 34.7204C64.5128 35.9394 64.4975 37.1898 64.192 38.4718C63.9172 39.745 63.2936 40.9 62.3212 41.9367ZM57.6631 56.4509C58.6011 56.1217 59.5415 55.742 60.4844 55.3118C61.4273 54.8815 62.0233 54.3989 62.2722 53.8639C62.5347 53.2587 62.6524 52.611 62.6252 51.9207C62.6202 51.191 62.4765 50.5002 62.1942 49.8481C61.9341 49.1567 61.5482 48.5503 61.0367 48.0289C60.5473 47.4681 59.9889 47.0762 59.3615 46.8532C58.4974 46.497 57.5816 46.3714 56.614 46.4762C55.6378 46.5502 54.7029 46.7124 53.8093 46.9627C53.3779 47.0835 52.9816 47.2111 52.6205 47.3455C52.2815 47.4404 51.9863 47.573 51.7349 47.7431C51.5056 47.8738 51.3596 48.0642 51.2967 48.3144C51.2339 48.5647 51.2629 48.9055 51.3837 49.3369C51.6697 50.1208 51.8941 50.9219 52.0569 51.7404C52.2197 52.5588 52.4046 53.3378 52.6118 54.0773C52.7326 54.5087 52.851 54.9907 52.9669 55.5231C53.105 56.0162 53.3909 56.3847 53.8248 56.6287C54.2587 56.8727 54.8165 56.9657 55.4981 56.9077C56.1797 56.8498 56.9014 56.6975 57.6631 56.4509ZM52.3735 34.0058C51.4096 34.2425 50.6041 34.4515 49.957 34.6328C49.3321 34.7746 48.852 34.9589 48.5168 35.1857C48.2037 35.3731 48.022 35.6732 47.9714 36.0861C47.9431 36.4596 48.0436 36.9964 48.2729 37.6965C48.4369 38.282 48.5855 38.8718 48.7187 39.4659C48.874 40.0205 49.0294 40.5752 49.1847 41.1298C49.3573 41.7461 49.6871 42.1522 50.174 42.3482C50.6522 42.5133 51.1927 42.5447 51.7955 42.4423C52.429 42.3313 53.0607 42.1544 53.6905 41.9115C54.3512 41.66 54.9151 41.419 55.3822 41.1885C56.4397 40.6929 57.1836 40.0858 57.6137 39.3671C58.066 38.6091 58.183 37.6624 57.9647 36.5272C57.6996 35.1061 57.0623 34.2544 56.0528 33.9722C55.0654 33.6506 53.839 33.6618 52.3735 34.0058Z" fill="#1E4B72"/>
</svg>
